<svg width="173" height="48" viewBox="0 0 173 48" fill="none" xmlns="http://www.w3.org/2000/svg">
<path d="M92.6717 9C92.5127 8.42045 92.2797 7.87784 91.9729 7.37216C91.6661 6.8608 91.2854 6.41477 90.8308 6.03409C90.382 5.64773 89.8621 5.34659 89.2712 5.13068C88.6859 4.91477 88.0325 4.80682 87.3109 4.80682C86.1746 4.80682 85.1575 5.10227 84.2598 5.69318C83.3621 6.28409 82.6519 7.13636 82.1291 8.25C81.6121 9.36364 81.3536 10.7045 81.3536 12.2727C81.3536 13.8352 81.6149 15.1733 82.1377 16.2869C82.6604 17.4006 83.3763 18.2557 84.2854 18.8523C85.2002 19.4432 86.2456 19.7386 87.4217 19.7386C88.4956 19.7386 89.4445 19.5 90.2683 19.0227C91.0922 18.5455 91.7342 17.8636 92.1945 16.9773C92.6604 16.0909 92.8877 15.0369 92.8763 13.8153L93.3877 13.9773H87.7967V12.5455H94.4274V13.9773C94.4274 15.4659 94.1263 16.7528 93.524 17.8381C92.9217 18.9233 92.095 19.7614 91.0439 20.3523C89.9928 20.9432 88.7854 21.2386 87.4217 21.2386C85.899 21.2386 84.5666 20.8722 83.4246 20.1392C82.2825 19.4006 81.3933 18.3608 80.757 17.0199C80.1263 15.6733 79.8109 14.0909 79.8109 12.2727C79.8109 10.9034 79.9928 9.66761 80.3564 8.56534C80.72 7.46307 81.2342 6.51989 81.899 5.73579C82.5695 4.9517 83.3621 4.35227 84.2769 3.9375C85.1916 3.51705 86.203 3.30682 87.3109 3.30682C88.2655 3.30682 89.1377 3.45739 89.9274 3.75852C90.7229 4.05966 91.4217 4.47443 92.024 5.00284C92.632 5.52557 93.1291 6.13068 93.5155 6.81818C93.9075 7.5 94.1717 8.22727 94.3081 9H92.6717ZM98.3841 21V3.54545H104.018C105.256 3.54545 106.29 3.76989 107.12 4.21875C107.955 4.66193 108.583 5.27841 109.003 6.06818C109.43 6.85227 109.643 7.75284 109.643 8.76989C109.643 9.78693 109.43 10.6847 109.003 11.4631C108.583 12.2415 107.958 12.8494 107.128 13.2869C106.299 13.7244 105.27 13.9432 104.043 13.9432H99.2449V12.4858H104.001C104.91 12.4858 105.665 12.3352 106.268 12.0341C106.876 11.733 107.327 11.304 107.623 10.7472C107.924 10.1903 108.074 9.53125 108.074 8.76989C108.074 8.00852 107.924 7.34375 107.623 6.77557C107.322 6.2017 106.867 5.75852 106.259 5.44602C105.657 5.13352 104.895 4.97727 103.975 4.97727H99.9779V21H98.3841ZM106.08 13.125L110.376 21H108.535L104.282 13.125H106.08ZM125.158 3.54545H126.752V15.1023C126.752 16.2898 126.474 17.3523 125.917 18.2898C125.36 19.2216 124.584 19.9574 123.59 20.4972C122.601 21.0312 121.451 21.2983 120.138 21.2983C118.832 21.2983 117.681 21.0284 116.687 20.4886C115.692 19.9489 114.917 19.2131 114.36 18.2812C113.803 17.3494 113.525 16.2898 113.525 15.1023V3.54545H115.118V14.9915C115.118 15.9176 115.326 16.7443 115.741 17.4716C116.155 18.1932 116.738 18.7614 117.488 19.1761C118.243 19.5909 119.127 19.7983 120.138 19.7983C121.15 19.7983 122.033 19.5909 122.789 19.1761C123.545 18.7614 124.127 18.1932 124.536 17.4716C124.951 16.7443 125.158 15.9176 125.158 14.9915V3.54545ZM131.384 21V3.54545H137.018C138.256 3.54545 139.29 3.78409 140.12 4.26136C140.955 4.73295 141.583 5.375 142.003 6.1875C142.43 7 142.643 7.91477 142.643 8.93182C142.643 9.94886 142.432 10.8665 142.012 11.6847C141.591 12.4972 140.966 13.142 140.137 13.6193C139.307 14.0909 138.276 14.3267 137.043 14.3267H132.611V12.8949H137.001C137.915 12.8949 138.674 12.7244 139.276 12.3835C139.878 12.0369 140.327 11.5653 140.623 10.9688C140.924 10.3722 141.074 9.69318 141.074 8.93182C141.074 8.17045 140.924 7.49148 140.623 6.89489C140.327 6.2983 139.876 5.82955 139.268 5.48864C138.665 5.14773 137.901 4.97727 136.975 4.97727H132.978V21H131.384ZM160.694 12.2727C160.694 14.0909 160.37 15.6733 159.722 17.0199C159.074 18.3608 158.182 19.4006 157.046 20.1392C155.915 20.8722 154.614 21.2386 153.143 21.2386C151.671 21.2386 150.367 20.8722 149.231 20.1392C148.1 19.4006 147.211 18.3608 146.563 17.0199C145.921 15.6733 145.6 14.0909 145.6 12.2727C145.6 10.4545 145.921 8.875 146.563 7.53409C147.211 6.1875 148.103 5.14773 149.239 4.41477C150.376 3.67614 151.677 3.30682 153.143 3.30682C154.614 3.30682 155.915 3.67614 157.046 4.41477C158.182 5.14773 159.074 6.1875 159.722 7.53409C160.37 8.875 160.694 10.4545 160.694 12.2727ZM159.143 12.2727C159.143 10.7102 158.881 9.37216 158.359 8.25852C157.836 7.1392 157.123 6.28409 156.219 5.69318C155.316 5.10227 154.29 4.80682 153.143 4.80682C152.001 4.80682 150.978 5.10227 150.074 5.69318C149.171 6.28409 148.455 7.13636 147.927 8.25C147.404 9.36364 147.143 10.7045 147.143 12.2727C147.143 13.8352 147.404 15.1733 147.927 16.2869C148.449 17.4006 149.163 18.2557 150.066 18.8523C150.969 19.4432 151.995 19.7386 153.143 19.7386C154.29 19.7386 155.316 19.4432 156.219 18.8523C157.128 18.2614 157.844 17.4091 158.367 16.2955C158.89 15.1761 159.148 13.8352 159.143 12.2727Z" fill="white"/>
<path d="M94.3933 27.5455V45H91.2058L83.6121 34.0142H83.4842V45H79.7939V27.5455H83.0325L90.5666 38.5227H90.72V27.5455H94.3933ZM113.482 36.2727C113.482 38.1761 113.121 39.7955 112.4 41.1307C111.684 42.4659 110.707 43.4858 109.468 44.1903C108.235 44.8892 106.849 45.2386 105.309 45.2386C103.758 45.2386 102.366 44.8864 101.133 44.1818C99.8997 43.4773 98.9253 42.4574 98.2094 41.1222C97.4935 39.7869 97.1355 38.1705 97.1355 36.2727C97.1355 34.3693 97.4935 32.75 98.2094 31.4148C98.9253 30.0795 99.8997 29.0625 101.133 28.3636C102.366 27.6591 103.758 27.3068 105.309 27.3068C106.849 27.3068 108.235 27.6591 109.468 28.3636C110.707 29.0625 111.684 30.0795 112.4 31.4148C113.121 32.75 113.482 34.3693 113.482 36.2727ZM109.741 36.2727C109.741 35.0398 109.556 34 109.187 33.1534C108.823 32.3068 108.309 31.6648 107.644 31.2273C106.979 30.7898 106.201 30.571 105.309 30.571C104.417 30.571 103.638 30.7898 102.974 31.2273C102.309 31.6648 101.792 32.3068 101.422 33.1534C101.059 34 100.877 35.0398 100.877 36.2727C100.877 37.5057 101.059 38.5455 101.422 39.392C101.792 40.2386 102.309 40.8807 102.974 41.3182C103.638 41.7557 104.417 41.9744 105.309 41.9744C106.201 41.9744 106.979 41.7557 107.644 41.3182C108.309 40.8807 108.823 40.2386 109.187 39.392C109.556 38.5455 109.741 37.5057 109.741 36.2727ZM119.489 45L114.494 27.5455H118.525L121.415 39.6733H121.56L124.747 27.5455H128.199L131.378 39.6989H131.531L134.42 27.5455H138.452L133.457 45H129.861L126.537 33.5881H126.4L123.085 45H119.489ZM141.677 45H137.723L143.748 27.5455H148.504L154.521 45H150.567L146.194 31.5341H146.058L141.677 45ZM141.43 38.1392H150.771V41.0199H141.43V38.1392ZM156.622 45V27.5455H160.312V35.2415H160.542L166.824 27.5455H171.247L164.77 35.3608L171.324 45H166.909L162.128 37.8239L160.312 40.0398V45H156.622Z" fill="white"/>
<path d="M49.0461 0L28.2769 4.84615V15.2308L49.0461 11.7692L64.2769 18.6923V11.7692L49.0461 0Z" fill="white"/>
<path d="M49.0461 20.0769L28.2769 22.8462V29.7692L49.0461 27.6923L64.2769 32.5385V25.6154L49.0461 20.0769Z" fill="white"/>
<path d="M49.0461 35.3077L28.2769 38.0769V45H49.0461H64.2769V36.6923L49.0461 35.3077Z" fill="white"/>
<path d="M17.019 9.69231L0.723145 13.4947V21.6426L17.019 18.9266L28.2769 22.8462V15.2308L17.019 9.69231Z" fill="white"/>
<path d="M17.019 25.445L0.723145 27.6177V35.3077L17.019 33.0497L28.2769 38.7692V29.7692L17.019 25.445Z" fill="white"/>
<path d="M17.019 37.3953L0.723145 39.568V45H17.019H23.4307V38.7692L17.019 37.3953Z" fill="white"/>
</svg>
