<?xml version="1.0" encoding="UTF-8"?>
<svg id="Layer_2" data-name="Layer 2" xmlns="http://www.w3.org/2000/svg" xmlns:xlink="http://www.w3.org/1999/xlink" viewBox="0 0 1919.69 211.9">
  <defs>
    <style>
      .cls-1 {
        fill: url(#linear-gradient-3);
      }

      .cls-2 {
        fill: url(#linear-gradient-2);
      }

      .cls-3 {
        fill: url(#linear-gradient);
      }

      .cls-4 {
        fill: #141d26;
      }
    </style>
    <linearGradient id="linear-gradient" x1="312.18" y1="166.55" x2="312.18" y2="0" gradientUnits="userSpaceOnUse">
      <stop offset=".16" stop-color="#3f3c3e"/>
      <stop offset="1" stop-color="#555354"/>
    </linearGradient>
    <linearGradient id="linear-gradient-2" x1="474.19" y1="172.54" x2="474.19" y2="5.99" gradientTransform="translate(1446.62) rotate(-180) scale(1 -1)" xlink:href="#linear-gradient"/>
    <linearGradient id="linear-gradient-3" x1="1588.28" y1="177.09" x2="1588.28" y2="10.54" xlink:href="#linear-gradient"/>
  </defs>
  <g id="Layer_1-2" data-name="Layer 1">
    <g>
      <polygon class="cls-3" points="570.72 29.19 562.54 35.93 562.54 56.59 553.82 56.59 553.82 0 514.86 0 514.86 131.81 503.14 122.16 503.14 46.26 416.49 46.26 416.49 65.57 370.71 65.57 370.71 126.2 370.71 152.9 330.5 152.9 330.5 74.05 318.87 74.05 318.87 43.38 295.02 43.38 295.02 94.18 283.97 94.18 283.97 103.77 270.01 85.55 245.59 85.55 245.59 19.89 198.48 19.89 194.41 23.25 194.41 43.38 194.41 65.9 181.03 65.9 181.03 5.99 140.9 5.99 140.9 16.06 133.05 22.53 133.05 124.62 124.03 124.62 124.03 42.66 118.8 42.66 118.8 34.75 72.56 34.75 64.71 41.22 64.71 50.33 21.09 50.33 18.76 166.55 164.16 166.55 164.16 166.31 311.89 166.31 311.89 166.55 370.71 166.55 455.54 166.55 605.59 166.55 605.59 29.19 570.72 29.19"/>
      <polygon class="cls-2" points="713.89 35.18 722.06 41.92 722.06 62.58 730.78 62.58 730.78 5.99 769.75 5.99 769.75 137.8 781.46 128.15 781.46 52.25 868.11 52.25 868.11 71.56 913.89 71.56 913.89 132.19 913.89 158.88 954.1 158.88 954.1 80.04 965.74 80.04 965.74 49.36 989.58 49.36 989.58 100.17 1000.63 100.17 1000.63 109.76 1014.59 91.54 1039.02 91.54 1039.02 25.88 1086.13 25.88 1090.2 29.23 1090.2 49.36 1090.2 71.89 1103.57 71.89 1103.57 11.98 1143.7 11.98 1143.7 22.04 1151.56 28.51 1151.56 130.6 1160.57 130.6 1160.57 48.64 1165.81 48.64 1165.81 40.74 1212.04 40.74 1219.89 47.21 1219.89 56.31 1263.51 56.31 1265.84 172.54 1120.44 172.54 1120.44 172.3 972.71 172.3 972.71 172.54 913.89 172.54 829.06 172.54 679.01 172.54 679.01 35.18 713.89 35.18"/>
      <polygon class="cls-1" points="1846.82 39.73 1838.64 46.47 1838.64 67.12 1829.92 67.12 1829.92 10.54 1790.96 10.54 1790.96 142.35 1779.24 132.7 1779.24 56.8 1692.59 56.8 1692.59 76.11 1646.81 76.11 1646.81 136.74 1646.81 163.43 1606.6 163.43 1606.6 84.59 1594.97 84.59 1594.97 53.91 1571.12 53.91 1571.12 104.72 1560.07 104.72 1560.07 114.3 1546.11 96.09 1521.68 96.09 1521.68 30.43 1474.58 30.43 1470.5 33.78 1470.5 53.91 1470.5 76.44 1457.13 76.44 1457.13 16.53 1417 16.53 1417 26.59 1409.15 33.06 1409.15 135.15 1400.13 135.15 1400.13 53.19 1394.9 53.19 1394.9 45.29 1348.66 45.29 1340.81 51.76 1340.81 60.86 1297.19 60.86 1294.86 177.09 1440.26 177.09 1440.26 176.85 1587.99 176.85 1587.99 177.09 1646.81 177.09 1731.64 177.09 1881.69 177.09 1881.69 39.73 1846.82 39.73"/>
      <polygon class="cls-4" points="1919.69 66.47 1881.45 66.47 1881.45 148.37 1867.36 148.37 1867.36 115.77 1847.38 103.07 1847.38 53.77 1822.12 53.77 1807.44 44.43 1788.64 44.43 1788.64 94.11 1743.41 94.11 1743.41 150.51 1731.66 150.51 1698.76 129.59 1689.95 129.59 1689.95 57.13 1678.79 57.13 1678.79 35.84 1667.63 35.84 1667.63 30.98 1662.93 30.98 1662.93 35.09 1635.32 35.09 1635.32 51.53 1609.48 51.53 1603.01 57.13 1603.01 124.36 1580.99 124.36 1580.99 110.73 1567.18 101.95 1567.18 69.83 1519.01 69.83 1519.01 96.35 1501.39 96.35 1501.39 118.76 1480.24 133.7 1466.73 133.7 1466.73 62.73 1429.14 46.3 1429.14 112.04 1420.32 112.04 1420.32 66.84 1375.68 66.84 1375.68 82.53 1355.12 82.53 1355.12 157.61 1346.31 157.61 1346.31 125.11 1316.35 125.11 1316.35 115.03 1311.06 110.17 1276.4 110.17 1276.4 121.79 1249.64 121.79 1244.35 126.65 1244.35 136.73 1214.39 136.73 1214.39 169.23 1205.58 169.23 1205.58 94.15 1185.02 94.15 1185.02 78.46 1140.38 78.46 1140.38 123.66 1131.57 123.66 1131.57 57.92 1093.97 74.35 1093.97 145.32 1080.46 145.32 1059.31 130.38 1059.31 107.97 1041.69 107.97 1041.69 81.45 993.52 81.45 993.52 113.57 979.72 122.35 979.72 135.99 957.69 135.99 957.69 68.75 951.23 63.15 925.38 63.15 925.38 46.71 897.77 46.71 897.77 42.6 893.07 42.6 893.07 47.46 881.91 47.46 881.91 68.75 870.75 68.75 870.75 141.22 861.94 141.22 861.94 94.15 829.04 83.32 829.04 162.13 817.29 162.13 817.29 105.73 772.06 105.73 772.06 56.05 753.26 56.05 738.58 65.39 713.32 65.39 713.32 114.7 693.35 127.4 693.35 159.99 679.25 159.99 679.25 78.09 643.6 78.09 643.6 50.62 605.36 50.62 605.36 132.52 591.26 132.52 591.26 99.92 571.28 87.22 571.28 37.92 546.03 37.92 531.34 28.58 512.54 28.58 512.54 78.26 467.31 78.26 467.31 134.66 455.56 134.66 455.56 55.85 422.67 66.68 422.67 113.74 413.85 113.74 413.85 41.28 402.69 41.28 402.69 19.99 391.53 19.99 391.53 15.13 386.83 15.13 386.83 19.24 359.22 19.24 359.22 35.68 333.38 35.68 326.92 41.28 326.92 108.51 304.89 108.51 304.89 94.88 291.08 86.1 291.08 53.98 242.91 53.98 242.91 80.5 225.29 80.5 225.29 102.91 204.14 117.85 190.63 117.85 190.63 46.88 153.04 30.45 153.04 96.19 144.23 96.19 144.23 50.99 99.58 50.99 99.58 66.68 79.02 66.68 79.02 141.76 70.21 141.76 70.21 109.26 40.25 109.26 40.25 99.18 34.96 94.32 .31 94.32 .31 177.09 0 177.09 0 211.9 1919.39 211.9 1919.39 195.38 1919.69 195.38 1919.69 66.47"/>
    </g>
  </g>
</svg>