<svg width="90" height="91" viewBox="0 0 90 91" fill="none" xmlns="http://www.w3.org/2000/svg">
<path d="M73.125 34.25V9.875H60V21.125L73.125 34.25Z" fill="#9FEAFF"/>
<path d="M66.5625 9.875H60V21.125L66.5625 27.6875V9.875Z" fill="#DFF9FF"/>
<path d="M45 6.125L1.875 49.25H13.125V84.875C13.125 85.8696 13.5201 86.8234 14.2233 87.5267C14.9266 88.2299 15.8804 88.625 16.875 88.625H33.75C34.2473 88.625 34.7242 88.4275 35.0758 88.0758C35.4275 87.7242 35.625 87.2473 35.625 86.75V71.75C35.625 69.2636 36.6127 66.879 38.3709 65.1209C40.129 63.3627 42.5136 62.375 45 62.375C47.4864 62.375 49.871 63.3627 51.6291 65.1209C53.3873 66.879 54.375 69.2636 54.375 71.75V86.75C54.375 87.2473 54.5725 87.7242 54.9242 88.0758C55.2758 88.4275 55.7527 88.625 56.25 88.625H73.125C74.1196 88.625 75.0734 88.2299 75.7766 87.5267C76.4799 86.8234 76.875 85.8696 76.875 84.875V49.25H88.125L45 6.125Z" fill="#DFF9FF"/>
<path d="M13.125 53L43.6725 22.4525C43.8467 22.2779 44.0536 22.1394 44.2814 22.0448C44.5092 21.9503 44.7534 21.9017 45 21.9017C45.2466 21.9017 45.4908 21.9503 45.7186 22.0448C45.9464 22.1394 46.1533 22.2779 46.3275 22.4525L76.875 53V49.25H88.125L45 6.125L1.875 49.25H13.125V53Z" fill="#9FEAFF"/>
<path d="M13.125 51.125V84.875C13.125 85.8696 13.5201 86.8234 14.2233 87.5266C14.9266 88.2299 15.8804 88.625 16.875 88.625H33.75C34.2473 88.625 34.7242 88.4275 35.0758 88.0758C35.4275 87.7242 35.625 87.2473 35.625 86.75V71.75C35.625 69.2636 36.6127 66.879 38.3709 65.1209C40.129 63.3627 42.5136 62.375 45 62.375C47.4864 62.375 49.871 63.3627 51.6291 65.1209C53.3873 66.879 54.375 69.2636 54.375 71.75V86.75C54.375 87.2473 54.5725 87.7242 54.9242 88.0758C55.2758 88.4275 55.7527 88.625 56.25 88.625H73.125C74.1196 88.625 75.0734 88.2299 75.7767 87.5266C76.4799 86.8234 76.875 85.8696 76.875 84.875V53" stroke="#00303E" stroke-linecap="round" stroke-linejoin="round"/>
<path d="M1.875 49.25L45 6.125L88.125 49.25" stroke="#00303E" stroke-linecap="round" stroke-linejoin="round"/>
<path d="M60 9.875H71.25C71.7473 9.875 72.2242 10.0725 72.5758 10.4242C72.9275 10.7758 73.125 11.2527 73.125 11.75V23" stroke="#00303E" stroke-linecap="round" stroke-linejoin="round"/>
</svg>
