<svg width="90" height="91" viewBox="0 0 90 91" fill="none" xmlns="http://www.w3.org/2000/svg">
<path d="M76.875 43.625C76.875 41.6359 76.0848 39.7282 74.6783 38.3217C73.2718 36.9152 71.3641 36.125 69.375 36.125H20.625C18.6359 36.125 16.7282 36.9152 15.3217 38.3217C13.9152 39.7282 13.125 41.6359 13.125 43.625V81.125C13.125 83.1141 13.9152 85.0218 15.3217 86.4283C16.7282 87.8348 18.6359 88.625 20.625 88.625H69.375C71.3641 88.625 73.2718 87.8348 74.6783 86.4283C76.0848 85.0218 76.875 83.1141 76.875 81.125V43.625Z" fill="#9FEAFF"/>
<path d="M45 36.125H20.625C18.6359 36.125 16.7282 36.9152 15.3217 38.3217C13.9152 39.7282 13.125 41.6359 13.125 43.625V81.125C13.125 83.1141 13.9152 85.0218 15.3217 86.4283C16.7282 87.8348 18.6359 88.625 20.625 88.625H45V36.125Z" fill="#DFF9FF"/>
<path d="M76.875 43.625C76.875 41.6359 76.0848 39.7282 74.6783 38.3217C73.2718 36.9152 71.3641 36.125 69.375 36.125H20.625C18.6359 36.125 16.7282 36.9152 15.3217 38.3217C13.9152 39.7282 13.125 41.6359 13.125 43.625V81.125C13.125 83.1141 13.9152 85.0218 15.3217 86.4283C16.7282 87.8348 18.6359 88.625 20.625 88.625H69.375C71.3641 88.625 73.2718 87.8348 74.6783 86.4283C76.0848 85.0218 76.875 83.1141 76.875 81.125V43.625Z" stroke="#96D0E1" stroke-linecap="round" stroke-linejoin="round"/>
<path d="M24.375 23C24.375 17.5299 26.548 12.2839 30.4159 8.41592C34.2839 4.54799 39.5299 2.375 45 2.375C50.4701 2.375 55.7161 4.54799 59.5841 8.41592C63.452 12.2839 65.625 17.5299 65.625 23V36.125H24.375V23Z" stroke="#96D0E1" stroke-linecap="round" stroke-linejoin="round"/>
<path d="M45 67.0625C45.9271 67.0625 46.8334 66.7876 47.6042 66.2725C48.3751 65.7574 48.9759 65.0254 49.3307 64.1688C49.6855 63.3123 49.7783 62.3698 49.5974 61.4605C49.4166 60.5512 48.9701 59.716 48.3146 59.0604C47.659 58.4049 46.8238 57.9584 45.9145 57.7776C45.0052 57.5967 44.0627 57.6895 43.2062 58.0443C42.3496 58.3991 41.6176 58.9999 41.1025 59.7708C40.5874 60.5416 40.3125 61.4479 40.3125 62.375C40.3125 63.6182 40.8064 64.8105 41.6854 65.6896C42.5645 66.5686 43.7568 67.0625 45 67.0625Z" fill="#9FEAFF" stroke="#96D0E1" stroke-linecap="round" stroke-linejoin="round"/>
</svg>
