<svg width="90" height="91" viewBox="0 0 90 91" fill="none" xmlns="http://www.w3.org/2000/svg">
<path d="M58.125 69.875V64.25C58.125 63.7527 58.3225 63.2758 58.6742 62.9242C59.0258 62.5725 59.5027 62.375 60 62.375H86.25C86.7473 62.375 87.2242 62.5725 87.5758 62.9242C87.9275 63.2758 88.125 63.7527 88.125 64.25V79.25C88.125 79.7473 87.9275 80.2242 87.5758 80.5758C87.2242 80.9275 86.7473 81.125 86.25 81.125H80.625" fill="#9FEAFF"/>
<path d="M58.125 69.875V64.25C58.125 63.7527 58.3225 63.2758 58.6742 62.9242C59.0258 62.5725 59.5027 62.375 60 62.375H86.25C86.7473 62.375 87.2242 62.5725 87.5758 62.9242C87.9275 63.2758 88.125 63.7527 88.125 64.25V79.25C88.125 79.7473 87.9275 80.2242 87.5758 80.5758C87.2242 80.9275 86.7473 81.125 86.25 81.125H80.625" stroke="#79D9F5" stroke-linecap="round" stroke-linejoin="round"/>
<path d="M5.625 43.625H35.625" stroke="#79D9F5" stroke-linecap="round" stroke-linejoin="round"/>
<path d="M50.625 71.75C50.625 71.2527 50.8225 70.7758 51.1742 70.4242C51.5258 70.0725 52.0027 69.875 52.5 69.875H78.75C79.2473 69.875 79.7242 70.0725 80.0758 70.4242C80.4275 70.7758 80.625 71.2527 80.625 71.75V86.75C80.625 87.2473 80.4275 87.7242 80.0758 88.0758C79.7242 88.4275 79.2473 88.625 78.75 88.625H52.5C52.0027 88.625 51.5258 88.4275 51.1742 88.0758C50.8225 87.7242 50.625 87.2473 50.625 86.75V71.75Z" fill="#DFF9FF"/>
<path d="M52.5 88.625C52.0027 88.625 51.5258 88.4275 51.1742 88.0758C50.8225 87.7242 50.625 87.2473 50.625 86.75V71.75C50.625 71.2527 50.8225 70.7758 51.1742 70.4242C51.5258 70.0725 52.0027 69.875 52.5 69.875H78.75C79.2473 69.875 79.7242 70.0725 80.0758 70.4242C80.4275 70.7758 80.625 71.2527 80.625 71.75L52.5 88.625Z" fill="#DFF9FF"/>
<path d="M50.625 71.75C50.625 71.2527 50.8225 70.7758 51.1742 70.4242C51.5258 70.0725 52.0027 69.875 52.5 69.875H78.75C79.2473 69.875 79.7242 70.0725 80.0758 70.4242C80.4275 70.7758 80.625 71.2527 80.625 71.75V86.75C80.625 87.2473 80.4275 87.7242 80.0758 88.0758C79.7242 88.4275 79.2473 88.625 78.75 88.625H52.5C52.0027 88.625 51.5258 88.4275 51.1742 88.0758C50.8225 87.7242 50.625 87.2473 50.625 86.75V71.75Z" stroke="#79D9F5" stroke-linecap="round" stroke-linejoin="round"/>
<path d="M65.625 78.3125C65.8104 78.3125 65.9917 78.3675 66.1458 78.4705C66.3 78.5735 66.4202 78.7199 66.4911 78.8912C66.5621 79.0625 66.5807 79.251 66.5445 79.4329C66.5083 79.6148 66.419 79.7818 66.2879 79.9129C66.1568 80.044 65.9898 80.1333 65.8079 80.1695C65.626 80.2057 65.4375 80.1871 65.2662 80.1161C65.0949 80.0452 64.9485 79.925 64.8455 79.7708C64.7425 79.6167 64.6875 79.4354 64.6875 79.25C64.6875 79.0014 64.7863 78.7629 64.9621 78.5871C65.1379 78.4113 65.3764 78.3125 65.625 78.3125Z" stroke="#79D9F5" stroke-linecap="round" stroke-linejoin="round"/>
<path d="M45 30.5L55.5 20.0262C56.2032 19.3232 57.1569 18.9283 58.1512 18.9283C59.1456 18.9283 60.0993 19.3232 60.8025 20.0262L63 22.2238C63.7032 22.9268 64.6569 23.3217 65.6512 23.3217C66.6456 23.3217 67.5993 22.9268 68.3025 22.2238L88.125 2.375" stroke="#79D9F5" stroke-linecap="round" stroke-linejoin="round"/>
<path d="M73.125 2.375H88.125V17.375" stroke="#79D9F5" stroke-linecap="round" stroke-linejoin="round"/>
<path d="M22.5 88.625C27.9701 88.625 33.2161 86.452 37.0841 82.5841C40.952 78.7161 43.125 73.4701 43.125 68C43.125 56.6075 30 43.625 30 43.625L37.3125 33.2C37.6734 32.6842 37.8563 32.0648 37.8336 31.4357C37.8108 30.8065 37.5836 30.202 37.1863 29.7136C36.7891 29.2252 36.2435 28.8797 35.6322 28.7292C35.0209 28.5788 34.3773 28.6317 33.7987 28.88C32.6817 29.3576 31.4473 29.49 30.2543 29.2601C29.0614 29.0302 27.9646 28.4485 27.105 27.59L26.0887 26.5737C25.6196 26.1041 25.0625 25.7315 24.4493 25.4773C23.8361 25.2231 23.1788 25.0923 22.515 25.0923C21.8512 25.0923 21.1939 25.2231 20.5807 25.4773C19.9675 25.7315 19.4104 26.1041 18.9412 26.5737L17.925 27.59C17.0667 28.4443 15.9732 29.0233 14.7843 29.2531C13.5953 29.4829 12.3648 29.353 11.25 28.88C10.6703 28.6213 10.0216 28.5604 9.40384 28.7065C8.78608 28.8527 8.23348 29.1978 7.83112 29.6888C7.42876 30.1798 7.19895 30.7895 7.17707 31.4239C7.15518 32.0584 7.34243 32.6824 7.71 33.2L15 43.625C15 43.625 1.875 56.6075 1.875 68C1.875 73.4701 4.04799 78.7161 7.91592 82.5841C11.7839 86.452 17.0299 88.625 22.5 88.625Z" fill="#DFF9FF"/>
<path d="M22.5 73.625C18.3905 73.6259 14.3744 72.3991 10.9669 70.102C7.55935 67.805 4.91569 64.5423 3.375 60.7325C2.11102 63.8632 1.63487 67.2562 1.98838 70.6138C2.34188 73.9714 3.51422 77.1909 5.40247 79.9896C7.29073 82.7884 9.83717 85.0808 12.8182 86.6656C15.7993 88.2505 19.1238 89.0793 22.5 89.0793C25.8762 89.0793 29.2007 88.2505 32.1818 86.6656C35.1628 85.0808 37.7093 82.7884 39.5975 79.9896C41.4858 77.1909 42.6581 73.9714 43.0116 70.6138C43.3651 67.2562 42.889 63.8632 41.625 60.7325C40.0843 64.5423 37.4407 67.805 34.0331 70.102C30.6256 72.3991 26.6095 73.6259 22.5 73.625Z" fill="#9FEAFF"/>
<path d="M22.5 88.625C27.9701 88.625 33.2161 86.452 37.0841 82.5841C40.952 78.7161 43.125 73.4701 43.125 68C43.125 56.6075 30 43.625 30 43.625L37.3125 33.2C37.6734 32.6842 37.8563 32.0648 37.8336 31.4357C37.8108 30.8065 37.5836 30.202 37.1863 29.7136C36.7891 29.2252 36.2435 28.8797 35.6322 28.7292C35.0209 28.5788 34.3773 28.6317 33.7987 28.88C32.6817 29.3576 31.4473 29.49 30.2543 29.2601C29.0614 29.0302 27.9646 28.4485 27.105 27.59L26.0887 26.5737C25.6196 26.1041 25.0625 25.7315 24.4493 25.4773C23.8361 25.2231 23.1788 25.0923 22.515 25.0923C21.8512 25.0923 21.1939 25.2231 20.5807 25.4773C19.9675 25.7315 19.4104 26.1041 18.9413 26.5737L17.925 27.59C17.0667 28.4443 15.9732 29.0233 14.7843 29.2531C13.5953 29.4829 12.3648 29.353 11.25 28.88C10.6703 28.6213 10.0216 28.5604 9.40384 28.7065C8.78608 28.8527 8.23348 29.1978 7.83112 29.6888C7.42876 30.1798 7.19895 30.7895 7.17707 31.4239C7.15518 32.0584 7.34243 32.6824 7.71 33.2L15 43.625C15 43.625 1.875 56.6075 1.875 68C1.875 73.4701 4.04799 78.7161 7.91592 82.5841C11.7839 86.452 17.0299 88.625 22.5 88.625Z" stroke="#79D9F5" stroke-linecap="round" stroke-linejoin="round"/>
<path d="M5.625 43.625H39.375" stroke="#79D9F5" stroke-linecap="round" stroke-linejoin="round"/>
<path d="M22.5 73.625V77.375" stroke="#79D9F5" stroke-linecap="round" stroke-linejoin="round"/>
<path d="M22.5 54.875V58.625" stroke="#79D9F5" stroke-linecap="round" stroke-linejoin="round"/>
<path d="M15 73.625H26.25C27.2446 73.625 28.1984 73.2299 28.9016 72.5267C29.6049 71.8234 30 70.8696 30 69.875C30 68.8804 29.6049 67.9266 28.9016 67.2233C28.1984 66.5201 27.2446 66.125 26.25 66.125H18.75C17.7554 66.125 16.8016 65.7299 16.0984 65.0267C15.3951 64.3234 15 63.3696 15 62.375C15 61.3804 15.3951 60.4266 16.0984 59.7234C16.8016 59.0201 17.7554 58.625 18.75 58.625H30" stroke="#79D9F5" stroke-linecap="round" stroke-linejoin="round"/>
</svg>
