<?xml version="1.0" encoding="UTF-8"?>
<svg id="Layer_2" data-name="Layer 2" xmlns="http://www.w3.org/2000/svg" xmlns:xlink="http://www.w3.org/1999/xlink" viewBox="0 0 1919.69 242.48">
  <defs>
    <style>
      .cls-1 {
        fill: url(#linear-gradient-7);
      }

      .cls-2 {
        fill: url(#linear-gradient-6);
      }

      .cls-3 {
        fill: url(#linear-gradient-4);
      }

      .cls-4 {
        fill: url(#linear-gradient-2);
      }

      .cls-5 {
        fill: url(#linear-gradient);
      }

      .cls-5, .cls-6, .cls-7, .cls-8 {
        opacity: .71;
      }

      .cls-6 {
        fill: url(#linear-gradient-5);
      }

      .cls-7 {
        fill: url(#linear-gradient-3);
      }
    </style>
    <linearGradient id="linear-gradient" x1="310.01" y1="187.63" x2="310.01" y2="0" gradientUnits="userSpaceOnUse">
      <stop offset="0" stop-color="#3f3c3e"/>
      <stop offset=".14" stop-color="#4e4c4d"/>
      <stop offset=".32" stop-color="#5a595a"/>
      <stop offset=".55" stop-color="#616161"/>
      <stop offset="1" stop-color="#646464"/>
    </linearGradient>
    <linearGradient id="linear-gradient-2" x1="312.18" y1="197.14" x2="312.18" y2="30.59" gradientUnits="userSpaceOnUse">
      <stop offset=".16" stop-color="#3f3c3e"/>
      <stop offset="1" stop-color="#555354"/>
    </linearGradient>
    <linearGradient id="linear-gradient-3" x1="472.02" y1="192.25" x2="472.02" y2="4.62" gradientTransform="translate(1446.62) rotate(-180) scale(1 -1)" xlink:href="#linear-gradient"/>
    <linearGradient id="linear-gradient-4" x1="474.19" y1="203.13" x2="474.19" y2="36.57" gradientTransform="translate(1446.62) rotate(-180) scale(1 -1)" xlink:href="#linear-gradient-2"/>
    <linearGradient id="linear-gradient-5" x1="1568.94" x2="1568.94" xlink:href="#linear-gradient"/>
    <linearGradient id="linear-gradient-6" x1="1588.28" y1="207.68" x2="1588.28" y2="41.12" xlink:href="#linear-gradient-2"/>
    <linearGradient id="linear-gradient-7" x1="959.85" y1="45.72" x2="959.85" y2="242.48" gradientUnits="userSpaceOnUse">
      <stop offset="0" stop-color="#3f3c3e"/>
      <stop offset=".86" stop-color="#101e20"/>
      <stop offset="1" stop-color="#08191b"/>
    </linearGradient>
  </defs>
  <g id="Layer_1-2" data-name="Layer 1">
    <g>
      <g class="cls-8">
        <polygon class="cls-5" points="584.81 39.41 584.81 20.42 540.39 20.42 540.39 0 483.28 0 483.28 51.75 470.01 51.75 470.01 63.86 459.62 63.86 459.62 92.82 447.51 92.82 447.51 52.94 417.51 52.94 417.51 41.31 400.49 41.31 400.49 59.94 384.63 66.47 384.63 103.98 347.13 103.98 347.13 21.6 306.75 21.6 306.75 37.03 275.02 37.03 266.36 40.6 266.36 49.14 226.56 49.14 219.06 52.23 219.06 81.19 202.33 81.19 202.33 36.56 171.18 36.56 171.18 44.39 121.85 44.39 121.85 63.27 112.91 66.95 112.91 85.49 98.04 85.49 98.04 39.74 77.85 36.41 77.85 24.07 23.62 24.07 23.62 76.3 18.76 76.3 18.76 187.63 62.34 187.63 98.04 187.63 199.05 187.63 199.05 187.5 601.25 187.3 601.25 46.17 584.81 39.41"/>
      </g>
      <polygon class="cls-4" points="570.72 59.78 562.54 66.52 562.54 87.17 553.82 87.17 553.82 30.59 514.86 30.59 514.86 162.4 503.14 152.74 503.14 76.84 416.49 76.84 416.49 96.16 370.71 96.16 370.71 156.79 370.71 183.48 330.5 183.48 330.5 104.64 318.87 104.64 318.87 73.96 295.02 73.96 295.02 124.77 283.97 124.77 283.97 134.35 270.01 116.14 245.59 116.14 245.59 50.48 198.48 50.48 194.41 53.83 194.41 73.96 194.41 96.49 181.03 96.49 181.03 36.58 140.9 36.58 140.9 46.64 133.05 53.11 133.05 155.2 124.03 155.2 124.03 73.24 118.8 73.24 118.8 65.34 72.56 65.34 64.71 71.81 64.71 80.91 21.09 80.91 18.76 197.14 164.16 197.14 164.16 196.9 311.89 196.9 311.89 197.14 370.71 197.14 455.54 197.14 605.59 197.14 605.59 59.78 570.72 59.78"/>
      <g class="cls-8">
        <polygon class="cls-7" points="699.79 44.03 699.79 25.03 744.21 25.03 744.21 4.62 801.33 4.62 801.33 56.37 814.6 56.37 814.6 68.48 824.98 68.48 824.98 97.44 837.09 97.44 837.09 57.56 867.09 57.56 867.09 45.93 884.11 45.93 884.11 64.56 899.98 71.09 899.98 108.6 937.47 108.6 937.47 26.22 977.86 26.22 977.86 41.65 1009.59 41.65 1018.24 45.21 1018.24 53.76 1058.05 53.76 1065.55 56.85 1065.55 85.81 1082.28 85.81 1082.28 41.18 1113.43 41.18 1113.43 49.01 1162.75 49.01 1162.75 67.89 1171.69 71.57 1171.69 90.1 1186.57 90.1 1186.57 44.35 1206.76 41.03 1206.76 28.69 1260.99 28.69 1260.99 80.91 1265.84 80.91 1265.84 192.25 1222.26 192.25 1186.57 192.25 1085.55 192.25 1085.55 192.12 683.35 191.92 683.35 50.79 699.79 44.03"/>
      </g>
      <polygon class="cls-3" points="713.89 65.77 722.06 72.5 722.06 93.16 730.78 93.16 730.78 36.57 769.75 36.57 769.75 168.39 781.46 158.73 781.46 82.83 868.11 82.83 868.11 102.14 913.89 102.14 913.89 162.77 913.89 189.47 954.1 189.47 954.1 110.63 965.74 110.63 965.74 79.95 989.58 79.95 989.58 130.76 1000.63 130.76 1000.63 140.34 1014.59 122.13 1039.02 122.13 1039.02 56.47 1086.13 56.47 1090.2 59.82 1090.2 79.95 1090.2 102.48 1103.57 102.48 1103.57 42.57 1143.7 42.57 1143.7 52.63 1151.56 59.1 1151.56 161.19 1160.57 161.19 1160.57 79.23 1165.81 79.23 1165.81 71.32 1212.04 71.32 1219.89 77.79 1219.89 86.9 1263.51 86.9 1265.84 203.13 1120.44 203.13 1120.44 202.89 972.71 202.89 972.71 203.13 913.89 203.13 829.06 203.13 679.01 203.13 679.01 65.77 713.89 65.77"/>
      <g class="cls-8">
        <polygon class="cls-6" points="1843.74 39.41 1843.74 20.42 1799.32 20.42 1799.32 0 1742.21 0 1742.21 51.75 1728.94 51.75 1728.94 63.86 1718.56 63.86 1718.56 92.82 1706.44 92.82 1706.44 52.94 1676.45 52.94 1676.45 41.31 1659.43 41.31 1659.43 59.94 1643.56 66.47 1643.56 103.98 1606.06 103.98 1606.06 21.6 1565.68 21.6 1565.68 37.03 1533.95 37.03 1525.3 40.6 1525.3 49.14 1485.49 49.14 1477.99 52.23 1477.99 81.19 1461.26 81.19 1461.26 36.56 1430.11 36.56 1430.11 44.39 1380.79 44.39 1380.79 63.27 1371.84 66.95 1371.84 85.49 1356.97 85.49 1356.97 39.74 1336.78 36.41 1336.78 24.07 1282.55 24.07 1282.55 76.3 1277.7 76.3 1277.7 187.63 1321.28 187.63 1356.97 187.63 1457.98 187.63 1457.98 187.5 1860.19 187.3 1860.19 46.17 1843.74 39.41"/>
      </g>
      <polygon class="cls-2" points="1846.82 70.32 1838.64 77.05 1838.64 97.71 1829.92 97.71 1829.92 41.12 1790.96 41.12 1790.96 172.94 1779.24 163.28 1779.24 87.38 1692.59 87.38 1692.59 106.69 1646.81 106.69 1646.81 167.32 1646.81 194.02 1606.6 194.02 1606.6 115.18 1594.97 115.18 1594.97 84.5 1571.12 84.5 1571.12 135.31 1560.07 135.31 1560.07 144.89 1546.11 126.68 1521.68 126.68 1521.68 61.01 1474.58 61.01 1470.5 64.37 1470.5 84.5 1470.5 107.03 1457.13 107.03 1457.13 47.11 1417 47.11 1417 57.18 1409.15 63.65 1409.15 165.74 1400.13 165.74 1400.13 83.78 1394.9 83.78 1394.9 75.87 1348.66 75.87 1340.81 82.34 1340.81 91.45 1297.19 91.45 1294.86 207.68 1440.26 207.68 1440.26 207.44 1587.99 207.44 1587.99 207.68 1646.81 207.68 1731.64 207.68 1881.69 207.68 1881.69 70.32 1846.82 70.32"/>
      <polygon class="cls-1" points="1919.69 97.05 1881.45 97.05 1881.45 178.95 1867.36 178.95 1867.36 146.36 1847.38 133.66 1847.38 84.35 1822.12 84.35 1807.44 75.01 1788.64 75.01 1788.64 124.69 1743.41 124.69 1743.41 181.1 1731.66 181.1 1698.76 160.18 1689.95 160.18 1689.95 87.71 1678.79 87.71 1678.79 66.42 1667.63 66.42 1667.63 61.57 1662.93 61.57 1662.93 65.68 1635.32 65.68 1635.32 82.11 1609.48 82.11 1603.01 87.71 1603.01 154.95 1580.99 154.95 1580.99 141.32 1567.18 132.54 1567.18 100.41 1519.01 100.41 1519.01 126.94 1501.39 126.94 1501.39 149.35 1480.24 164.29 1466.73 164.29 1466.73 93.32 1429.14 76.88 1429.14 142.62 1420.32 142.62 1420.32 97.43 1375.68 97.43 1375.68 113.11 1355.12 113.11 1355.12 188.19 1346.31 188.19 1346.31 155.7 1316.35 155.7 1316.35 145.61 1311.06 140.76 1276.4 140.76 1276.4 152.38 1249.64 152.38 1244.35 157.23 1244.35 167.32 1214.39 167.32 1214.39 199.82 1205.58 199.82 1205.58 124.74 1185.02 124.74 1185.02 109.05 1140.38 109.05 1140.38 154.25 1131.57 154.25 1131.57 88.51 1093.97 104.94 1093.97 175.91 1080.46 175.91 1059.31 160.97 1059.31 138.56 1041.69 138.56 1041.69 112.04 993.52 112.04 993.52 144.16 979.72 152.94 979.72 166.57 957.69 166.57 957.69 99.34 951.23 93.73 925.38 93.73 925.38 77.3 897.77 77.3 897.77 73.19 893.07 73.19 893.07 78.05 881.91 78.05 881.91 99.34 870.75 99.34 870.75 171.8 861.94 171.8 861.94 124.74 829.04 113.91 829.04 192.72 817.29 192.72 817.29 136.32 772.06 136.32 772.06 86.64 753.26 86.64 738.58 95.98 713.32 95.98 713.32 145.28 693.35 157.98 693.35 190.58 679.25 190.58 679.25 108.68 643.6 108.68 643.6 81.2 605.36 81.2 605.36 163.1 591.26 163.1 591.26 130.51 571.28 117.81 571.28 68.5 546.03 68.5 531.34 59.17 512.54 59.17 512.54 108.84 467.31 108.84 467.31 165.25 455.56 165.25 455.56 86.43 422.67 97.27 422.67 144.33 413.85 144.33 413.85 71.87 402.69 71.87 402.69 50.57 391.53 50.57 391.53 45.72 386.83 45.72 386.83 49.83 359.22 49.83 359.22 66.26 333.38 66.26 326.92 71.87 326.92 139.1 304.89 139.1 304.89 125.47 291.08 116.69 291.08 84.57 242.91 84.57 242.91 111.09 225.29 111.09 225.29 133.5 204.14 148.44 190.63 148.44 190.63 77.47 153.04 61.03 153.04 126.77 144.23 126.77 144.23 81.58 99.58 81.58 99.58 97.27 79.02 97.27 79.02 172.34 70.21 172.34 70.21 139.85 40.25 139.85 40.25 129.76 34.96 124.91 .31 124.91 .31 207.68 0 207.68 0 242.48 1919.39 242.48 1919.39 225.96 1919.69 225.96 1919.69 97.05"/>
    </g>
  </g>
</svg>