<?xml version="1.0" encoding="UTF-8"?>
<svg id="Layer_2" data-name="Layer 2" xmlns="http://www.w3.org/2000/svg" xmlns:xlink="http://www.w3.org/1999/xlink" viewBox="0 0 1919.69 121.6">
  <defs>
    <style>
      .cls-1 {
        fill: url(#linear-gradient-7);
      }

      .cls-2 {
        fill: url(#linear-gradient-6);
      }

      .cls-3 {
        fill: url(#linear-gradient-4);
      }

      .cls-4 {
        fill: url(#linear-gradient-2);
      }

      .cls-5 {
        fill: url(#linear-gradient);
      }

      .cls-5, .cls-6, .cls-7, .cls-8 {
        opacity: .71;
      }

      .cls-6 {
        fill: url(#linear-gradient-5);
      }

      .cls-7 {
        fill: url(#linear-gradient-3);
      }
    </style>
    <linearGradient id="linear-gradient" x1="310.01" y1="94.09" x2="310.01" y2="0" gradientUnits="userSpaceOnUse">
      <stop offset="0" stop-color="#3f3c3e"/>
      <stop offset=".14" stop-color="#4e4c4d"/>
      <stop offset=".32" stop-color="#5a595a"/>
      <stop offset=".55" stop-color="#616161"/>
      <stop offset="1" stop-color="#646464"/>
    </linearGradient>
    <linearGradient id="linear-gradient-2" x1="312.18" y1="98.86" x2="312.18" y2="15.34" gradientUnits="userSpaceOnUse">
      <stop offset=".16" stop-color="#3f3c3e"/>
      <stop offset="1" stop-color="#555354"/>
    </linearGradient>
    <linearGradient id="linear-gradient-3" x1="472.02" y1="96.41" x2="472.02" y2="2.32" gradientTransform="translate(1446.62) rotate(-180) scale(1 -1)" xlink:href="#linear-gradient"/>
    <linearGradient id="linear-gradient-4" x1="474.19" y1="101.86" x2="474.19" y2="18.34" gradientTransform="translate(1446.62) rotate(-180) scale(1 -1)" xlink:href="#linear-gradient-2"/>
    <linearGradient id="linear-gradient-5" x1="1568.94" x2="1568.94" xlink:href="#linear-gradient"/>
    <linearGradient id="linear-gradient-6" x1="1588.28" y1="104.15" x2="1588.28" y2="20.62" xlink:href="#linear-gradient-2"/>
    <linearGradient id="linear-gradient-7" x1="959.85" y1="22.93" x2="959.85" y2="121.6" gradientUnits="userSpaceOnUse">
      <stop offset="0" stop-color="#3f3c3e"/>
      <stop offset=".86" stop-color="#101e20"/>
      <stop offset="1" stop-color="#08191b"/>
    </linearGradient>
  </defs>
  <g id="Layer_1-2" data-name="Layer 1">
    <g>
      <g class="cls-8">
        <polygon class="cls-5" points="584.81 19.76 584.81 10.24 540.39 10.24 540.39 0 483.28 0 483.28 25.95 470.01 25.95 470.01 32.02 459.62 32.02 459.62 46.55 447.51 46.55 447.51 26.55 417.51 26.55 417.51 20.71 400.49 20.71 400.49 30.06 384.63 33.33 384.63 52.14 347.13 52.14 347.13 10.83 306.75 10.83 306.75 18.57 275.02 18.57 266.36 20.36 266.36 24.64 226.56 24.64 219.06 26.19 219.06 40.72 202.33 40.72 202.33 18.33 171.18 18.33 171.18 22.26 121.85 22.26 121.85 31.73 112.91 33.57 112.91 42.87 98.04 42.87 98.04 19.93 77.85 18.26 77.85 12.07 23.62 12.07 23.62 38.26 18.76 38.26 18.76 94.09 62.34 94.09 98.04 94.09 199.05 94.09 199.05 94.03 601.25 93.93 601.25 23.16 584.81 19.76"/>
      </g>
      <polygon class="cls-4" points="570.72 29.98 562.54 33.36 562.54 43.72 553.82 43.72 553.82 15.34 514.86 15.34 514.86 81.44 503.14 76.6 503.14 38.54 416.49 38.54 416.49 48.22 370.71 48.22 370.71 78.62 370.71 92.01 330.5 92.01 330.5 52.47 318.87 52.47 318.87 37.09 295.02 37.09 295.02 62.57 283.97 62.57 283.97 67.38 270.01 58.24 245.59 58.24 245.59 25.31 198.48 25.31 194.41 27 194.41 37.09 194.41 48.39 181.03 48.39 181.03 18.34 140.9 18.34 140.9 23.39 133.05 26.64 133.05 77.83 124.03 77.83 124.03 36.73 118.8 36.73 118.8 32.76 72.56 32.76 64.71 36.01 64.71 40.58 21.09 40.58 18.76 98.86 164.16 98.86 164.16 98.74 311.89 98.74 311.89 98.86 370.71 98.86 455.54 98.86 605.59 98.86 605.59 29.98 570.72 29.98"/>
      <g class="cls-8">
        <polygon class="cls-7" points="699.79 22.08 699.79 12.55 744.21 12.55 744.21 2.32 801.33 2.32 801.33 28.27 814.6 28.27 814.6 34.34 824.98 34.34 824.98 48.86 837.09 48.86 837.09 28.86 867.09 28.86 867.09 23.03 884.11 23.03 884.11 32.38 899.98 35.65 899.98 54.46 937.47 54.46 937.47 13.15 977.86 13.15 977.86 20.89 1009.59 20.89 1018.24 22.67 1018.24 26.96 1058.05 26.96 1065.55 28.51 1065.55 43.03 1082.28 43.03 1082.28 20.65 1113.43 20.65 1113.43 24.58 1162.75 24.58 1162.75 34.04 1171.69 35.89 1171.69 45.18 1186.57 45.18 1186.57 22.24 1206.76 20.58 1206.76 14.38 1260.99 14.38 1260.99 40.58 1265.84 40.58 1265.84 96.41 1222.26 96.41 1186.57 96.41 1085.55 96.41 1085.55 96.34 683.35 96.24 683.35 25.47 699.79 22.08"/>
      </g>
      <polygon class="cls-3" points="713.89 32.98 722.06 36.36 722.06 46.72 730.78 46.72 730.78 18.34 769.75 18.34 769.75 84.44 781.46 79.6 781.46 41.54 868.11 41.54 868.11 51.22 913.89 51.22 913.89 81.63 913.89 95.01 954.1 95.01 954.1 55.48 965.74 55.48 965.74 40.09 989.58 40.09 989.58 65.57 1000.63 65.57 1000.63 70.38 1014.59 61.24 1039.02 61.24 1039.02 28.32 1086.13 28.32 1090.2 30 1090.2 40.09 1090.2 51.39 1103.57 51.39 1103.57 21.35 1143.7 21.35 1143.7 26.39 1151.56 29.64 1151.56 80.83 1160.57 80.83 1160.57 39.73 1165.81 39.73 1165.81 35.77 1212.04 35.77 1219.89 39.01 1219.89 43.58 1263.51 43.58 1265.84 101.86 1120.44 101.86 1120.44 101.74 972.71 101.74 972.71 101.86 913.89 101.86 829.06 101.86 679.01 101.86 679.01 32.98 713.89 32.98"/>
      <g class="cls-8">
        <polygon class="cls-6" points="1843.74 19.76 1843.74 10.24 1799.32 10.24 1799.32 0 1742.21 0 1742.21 25.95 1728.94 25.95 1728.94 32.02 1718.56 32.02 1718.56 46.55 1706.44 46.55 1706.44 26.55 1676.45 26.55 1676.45 20.71 1659.43 20.71 1659.43 30.06 1643.56 33.33 1643.56 52.14 1606.06 52.14 1606.06 10.83 1565.68 10.83 1565.68 18.57 1533.95 18.57 1525.3 20.36 1525.3 24.64 1485.49 24.64 1477.99 26.19 1477.99 40.72 1461.26 40.72 1461.26 18.33 1430.11 18.33 1430.11 22.26 1380.79 22.26 1380.79 31.73 1371.84 33.57 1371.84 42.87 1356.97 42.87 1356.97 19.93 1336.78 18.26 1336.78 12.07 1282.55 12.07 1282.55 38.26 1277.7 38.26 1277.7 94.09 1321.28 94.09 1356.97 94.09 1457.98 94.09 1457.98 94.03 1860.19 93.93 1860.19 23.16 1843.74 19.76"/>
      </g>
      <polygon class="cls-2" points="1846.82 35.26 1838.64 38.64 1838.64 49 1829.92 49 1829.92 20.62 1790.96 20.62 1790.96 86.72 1779.24 81.88 1779.24 43.82 1692.59 43.82 1692.59 53.5 1646.81 53.5 1646.81 83.91 1646.81 97.3 1606.6 97.3 1606.6 57.76 1594.97 57.76 1594.97 42.37 1571.12 42.37 1571.12 67.85 1560.07 67.85 1560.07 72.66 1546.11 63.53 1521.68 63.53 1521.68 30.6 1474.58 30.6 1470.5 32.28 1470.5 42.37 1470.5 53.67 1457.13 53.67 1457.13 23.63 1417 23.63 1417 28.67 1409.15 31.92 1409.15 83.12 1400.13 83.12 1400.13 42.01 1394.9 42.01 1394.9 38.05 1348.66 38.05 1340.81 41.29 1340.81 45.86 1297.19 45.86 1294.86 104.15 1440.26 104.15 1440.26 104.03 1587.99 104.03 1587.99 104.15 1646.81 104.15 1731.64 104.15 1881.69 104.15 1881.69 35.26 1846.82 35.26"/>
      <polygon class="cls-1" points="1919.69 48.67 1881.45 48.67 1881.45 89.74 1867.36 89.74 1867.36 73.4 1847.38 67.03 1847.38 42.3 1822.12 42.3 1807.44 37.62 1788.64 37.62 1788.64 62.53 1743.41 62.53 1743.41 90.82 1731.66 90.82 1698.76 80.33 1689.95 80.33 1689.95 43.99 1678.79 43.99 1678.79 33.31 1667.63 33.31 1667.63 30.87 1662.93 30.87 1662.93 32.94 1635.32 32.94 1635.32 41.18 1609.48 41.18 1603.01 43.99 1603.01 77.7 1580.99 77.7 1580.99 70.87 1567.18 66.46 1567.18 50.36 1519.01 50.36 1519.01 63.66 1501.39 63.66 1501.39 74.89 1480.24 82.39 1466.73 82.39 1466.73 46.8 1429.14 38.55 1429.14 71.52 1420.32 71.52 1420.32 48.86 1375.68 48.86 1375.68 56.72 1355.12 56.72 1355.12 94.37 1346.31 94.37 1346.31 78.08 1316.35 78.08 1316.35 73.02 1311.06 70.59 1276.4 70.59 1276.4 76.41 1249.64 76.41 1244.35 78.85 1244.35 83.91 1214.39 83.91 1214.39 100.2 1205.58 100.2 1205.58 62.55 1185.02 62.55 1185.02 54.69 1140.38 54.69 1140.38 77.35 1131.57 77.35 1131.57 44.38 1093.97 52.63 1093.97 88.22 1080.46 88.22 1059.31 80.72 1059.31 69.48 1041.69 69.48 1041.69 56.18 993.52 56.18 993.52 72.29 979.72 76.7 979.72 83.53 957.69 83.53 957.69 49.82 951.23 47.01 925.38 47.01 925.38 38.76 897.77 38.76 897.77 36.7 893.07 36.7 893.07 39.14 881.91 39.14 881.91 49.82 870.75 49.82 870.75 86.15 861.94 86.15 861.94 62.55 829.04 57.12 829.04 96.64 817.29 96.64 817.29 68.36 772.06 68.36 772.06 43.45 753.26 43.45 738.58 48.13 713.32 48.13 713.32 72.86 693.35 79.22 693.35 95.57 679.25 95.57 679.25 54.5 643.6 54.5 643.6 40.72 605.36 40.72 605.36 81.79 591.26 81.79 591.26 65.45 571.28 59.08 571.28 34.35 546.03 34.35 531.34 29.67 512.54 29.67 512.54 54.58 467.31 54.58 467.31 82.87 455.56 82.87 455.56 43.34 422.67 48.78 422.67 72.38 413.85 72.38 413.85 36.04 402.69 36.04 402.69 25.36 391.53 25.36 391.53 22.93 386.83 22.93 386.83 24.99 359.22 24.99 359.22 33.23 333.38 33.23 326.92 36.04 326.92 69.76 304.89 69.76 304.89 62.92 291.08 58.52 291.08 42.41 242.91 42.41 242.91 55.71 225.29 55.71 225.29 66.95 204.14 74.44 190.63 74.44 190.63 38.85 153.04 30.61 153.04 63.57 144.23 63.57 144.23 40.91 99.58 40.91 99.58 48.78 79.02 48.78 79.02 86.43 70.21 86.43 70.21 70.13 40.25 70.13 40.25 65.07 34.96 62.64 .31 62.64 .31 104.15 0 104.15 0 121.6 1919.39 121.6 1919.39 113.32 1919.69 113.32 1919.69 48.67"/>
    </g>
  </g>
</svg>